<svg width="448" height="344" viewBox="0 0 448 344" fill="none" xmlns="http://www.w3.org/2000/svg">
<path d="M432.703 153.272L402.203 138.811L376.303 83.5931C369.303 68.474 355.103 59.052 339.603 59.1616H295.003V45.3572C295.003 20.3779 276.803 0 254.003 0H40.8027C18.0027 0 0.00266079 20.4874 0.00266079 45.3572V256.805C-0.197339 272.034 10.9027 284.523 24.8027 284.742C24.9027 284.742 25.0027 284.742 25.2027 284.742H30.5027C30.5027 285.838 30.4027 286.276 30.4027 286.934C30.3027 318.267 53.4027 343.794 82.0027 343.904C110.603 344.014 133.903 318.706 134.003 287.372C134.003 287.153 134.003 287.043 134.003 286.824C134.003 286.057 134.003 285.728 133.903 284.633H306.203C306.203 285.728 306.203 286.167 306.203 286.824C306.103 318.158 329.203 343.685 357.803 343.794C386.403 343.904 409.703 318.596 409.803 287.262C409.803 287.043 409.803 286.934 409.803 286.714C409.803 285.948 409.803 285.619 409.803 284.523H422.703C436.603 284.523 447.903 272.143 447.903 256.915C447.903 256.805 447.903 256.695 447.903 256.476V178.69C448.103 167.953 442.103 157.764 432.703 153.272ZM82.3027 322.102C64.7027 322.102 50.5027 306.545 50.5027 287.262C50.5027 267.98 64.7027 252.423 82.3027 252.423C99.9027 252.423 114.103 267.98 114.103 287.262C114.103 306.435 99.8027 322.102 82.3027 322.102ZM275.003 263.05H129.203C120.803 243.001 102.403 230.182 82.3027 230.292C62.1027 230.182 43.8027 242.891 35.4027 263.05H25.2027C22.1027 263.05 20.0027 260.42 20.0027 257.024V200.602H275.003V263.05ZM275.003 45.4668V178.69H20.0027V45.4668C20.0027 32.6484 29.1027 22.0212 40.8027 22.0212H254.003C265.703 22.1308 275.103 32.6484 275.003 45.3572V45.4668ZM295.003 81.1828H339.603C347.503 81.0733 354.903 85.7843 358.603 93.5629L378.603 135.962H295.003V81.1828V81.1828ZM358.103 322.102C340.503 322.102 326.303 306.545 326.303 287.262C326.303 267.98 340.503 252.423 358.103 252.423C375.703 252.423 389.903 267.98 389.903 287.262C389.903 306.435 375.703 322.102 358.103 322.102ZM428.003 257.024C428.003 260.42 425.903 263.05 422.803 263.05H405.003C392.903 234.674 362.103 222.404 336.203 235.66C325.203 241.248 316.303 250.998 311.203 263.05H295.003V157.874H393.003L424.803 173.212C426.803 174.308 428.103 176.718 428.003 179.128V257.024Z" fill="white"/>
</svg>
