<svg width="500" height="100" viewBox="0 0 500 100" fill="none" xmlns="http://www.w3.org/2000/svg">
<path d="M50 0L61.2257 34.5491H97.5528L68.1636 55.9017L79.3893 90.4509L50 69.0983L20.6107 90.4509L31.8364 55.9017L2.44717 34.5491H38.7743L50 0Z" fill="#8A2BE2"/>
<path d="M150 0L161.226 34.5491H197.553L168.164 55.9017L179.389 90.4509L150 69.0983L120.611 90.4509L131.836 55.9017L102.447 34.5491H138.774L150 0Z" fill="#8A2BE2"/>
<path d="M250 0L261.226 34.5491H297.553L268.164 55.9017L279.389 90.4509L250 69.0983L220.611 90.4509L231.836 55.9017L202.447 34.5491H238.774L250 0Z" fill="#8A2BE2"/>
<path d="M350 0L361.226 34.5491H397.553L368.164 55.9017L379.389 90.4509L350 69.0983L320.611 90.4509L331.836 55.9017L302.447 34.5491H338.774L350 0Z" fill="#8A2BE2"/>
<path d="M450 0L461.226 34.5491H497.553L468.164 55.9017L479.389 90.4509L450 69.0983L420.611 90.4509L431.836 55.9017L402.447 34.5491H438.774L450 0Z" fill="#C4C4C4"/>
</svg>
