<svg width="512" height="512" viewBox="0 0 512 512" fill="none" xmlns="http://www.w3.org/2000/svg">
<path d="M437.02 330.98C409.137 303.098 375.949 282.457 339.739 269.962C378.521 243.251 404 198.548 404 148C404 66.393 337.607 0 256 0C174.393 0 108 66.393 108 148C108 198.548 133.479 243.251 172.262 269.962C136.052 282.457 102.864 303.098 74.981 330.98C26.629 379.333 0 443.62 0 512H40C40 392.897 136.897 296 256 296C375.103 296 472 392.897 472 512H512C512 443.62 485.371 379.333 437.02 330.98ZM256 256C196.449 256 148 207.552 148 148C148 88.448 196.449 40 256 40C315.551 40 364 88.448 364 148C364 207.552 315.551 256 256 256Z" fill="white"/>
</svg>
