<svg width="444" height="512" viewBox="0 0 444 512" fill="none" xmlns="http://www.w3.org/2000/svg">
<path d="M443.055 495.171L404.141 124.597C403.324 116.84 396.785 110.949 388.984 110.949H315.844V94.2733C315.844 42.2929 273.551 0 221.571 0C169.586 0 127.293 42.2929 127.293 94.2733V110.949H54.1529C46.3522 110.949 39.8131 116.84 38.9967 124.597L0.082734 495.171C-0.366484 499.464 1.02804 503.749 3.91476 506.96C6.80538 510.167 10.9226 511.999 15.239 511.999H427.894C432.215 511.999 436.332 510.167 439.219 506.96C442.113 503.749 443.504 499.464 443.055 495.171ZM157.77 94.2733C157.77 59.0975 186.391 30.4765 221.571 30.4765C256.746 30.4765 285.367 59.0975 285.367 94.2733V110.949H157.77V94.2733ZM32.1608 481.522L67.8756 141.426H127.293V175.007C127.293 183.422 134.118 190.246 142.532 190.246C150.946 190.246 157.77 183.422 157.77 175.007V141.426H285.367V175.007C285.367 183.422 292.192 190.246 300.606 190.246C309.02 190.246 315.844 183.422 315.844 175.007V141.426H375.262L410.976 481.522H32.1608Z" fill="white"/>
</svg>
