<svg width="692" height="512" viewBox="0 0 692 512" fill="none" xmlns="http://www.w3.org/2000/svg">
<path d="M297 200C297 188.954 288.046 180 277 180H197C185.954 180 177 188.954 177 200V235.878H90V275.878H177V310C177 321.046 185.954 330 197 330H277C288.046 330 297 321.046 297 310V275.878H602V235.878H297V200ZM257 290H217V220H257V290Z" fill="white"/>
<path d="M521 382C521 370.954 512.046 362 501 362H421C409.954 362 401 370.954 401 382V417H90V457H401V492C401 503.046 409.954 512 421 512H501C512.046 512 521 503.046 521 492V457H602V417H521V382ZM481 472H441V402H481V472Z" fill="white"/>
<path d="M523 56V20C523 8.954 514.046 0 503 0H423C411.954 0 403 8.954 403 20V56H90V96H403V130C403 141.046 411.954 150 423 150H503C514.046 150 523 141.046 523 130V96H602V56H523ZM483 110H443V40H483V110Z" fill="white"/>
</svg>
